<mxfile host="Electron" modified="2023-11-21T16:49:40.374Z" agent="Mozilla/5.0 (Windows NT 10.0; Win64; x64) AppleWebKit/537.36 (KHTML, like Gecko) draw.io/21.7.5 Chrome/114.0.5735.289 Electron/25.8.1 Safari/537.36" etag="PEUh4KFqNQ1a7XpBobFV" version="21.7.5" type="device">
  <diagram id="C5RBs43oDa-KdzZeNtuy" name="Page-1">
    <mxGraphModel dx="596" dy="1525" grid="1" gridSize="10" guides="1" tooltips="1" connect="1" arrows="1" fold="1" page="1" pageScale="1" pageWidth="827" pageHeight="1169" math="0" shadow="0">
      <root>
        <mxCell id="WIyWlLk6GJQsqaUBKTNV-0" />
        <mxCell id="WIyWlLk6GJQsqaUBKTNV-1" parent="WIyWlLk6GJQsqaUBKTNV-0" />
        <mxCell id="ebw3Io6tW6_mU000Hd5M-12" style="edgeStyle=orthogonalEdgeStyle;rounded=0;orthogonalLoop=1;jettySize=auto;html=1;exitX=0.5;exitY=1;exitDx=0;exitDy=0;entryX=0.5;entryY=0;entryDx=0;entryDy=0;" edge="1" parent="WIyWlLk6GJQsqaUBKTNV-1" source="WIyWlLk6GJQsqaUBKTNV-3" target="ebw3Io6tW6_mU000Hd5M-11">
          <mxGeometry relative="1" as="geometry" />
        </mxCell>
        <mxCell id="WIyWlLk6GJQsqaUBKTNV-3" value="Get Config Params" style="rounded=1;whiteSpace=wrap;html=1;fontSize=12;glass=0;strokeWidth=1;shadow=1;strokeColor=default;" parent="WIyWlLk6GJQsqaUBKTNV-1" vertex="1">
          <mxGeometry x="419" y="-200" width="120" height="40" as="geometry" />
        </mxCell>
        <mxCell id="WIyWlLk6GJQsqaUBKTNV-5" value="No" style="edgeStyle=orthogonalEdgeStyle;rounded=0;html=1;jettySize=auto;orthogonalLoop=1;fontSize=11;endArrow=classicThin;endFill=1;endSize=8;strokeWidth=1;shadow=0;labelBackgroundColor=none;entryX=0;entryY=0.5;entryDx=0;entryDy=0;" parent="WIyWlLk6GJQsqaUBKTNV-1" source="WIyWlLk6GJQsqaUBKTNV-6" target="-u-3ihkZp8rK3zhcPllg-5" edge="1">
          <mxGeometry x="-0.3333" y="10" relative="1" as="geometry">
            <mxPoint as="offset" />
            <mxPoint x="549.86" y="317" as="targetPoint" />
          </mxGeometry>
        </mxCell>
        <mxCell id="WIyWlLk6GJQsqaUBKTNV-6" value="n &amp;gt; 0" style="rhombus;whiteSpace=wrap;html=1;shadow=0;fontFamily=Helvetica;fontSize=12;align=center;strokeWidth=1;spacing=6;spacingTop=-4;" parent="WIyWlLk6GJQsqaUBKTNV-1" vertex="1">
          <mxGeometry x="429.86" y="257" width="100" height="80" as="geometry" />
        </mxCell>
        <mxCell id="-u-3ihkZp8rK3zhcPllg-17" style="edgeStyle=orthogonalEdgeStyle;rounded=0;orthogonalLoop=1;jettySize=auto;html=1;exitX=0.5;exitY=1;exitDx=0;exitDy=0;entryX=0.5;entryY=0;entryDx=0;entryDy=0;endArrow=classicThin;endFill=1;" parent="WIyWlLk6GJQsqaUBKTNV-1" source="WIyWlLk6GJQsqaUBKTNV-7" target="-u-3ihkZp8rK3zhcPllg-16" edge="1">
          <mxGeometry relative="1" as="geometry" />
        </mxCell>
        <mxCell id="WIyWlLk6GJQsqaUBKTNV-7" value="Get log folder&lt;br&gt;All files in Dir&lt;br&gt;Get No. of files (n)" style="rounded=1;whiteSpace=wrap;html=1;fontSize=12;glass=0;strokeWidth=1;shadow=0;" parent="WIyWlLk6GJQsqaUBKTNV-1" vertex="1">
          <mxGeometry x="419.86" y="103" width="120" height="50" as="geometry" />
        </mxCell>
        <mxCell id="WIyWlLk6GJQsqaUBKTNV-10" value="error?" style="rhombus;whiteSpace=wrap;html=1;shadow=0;fontFamily=Helvetica;fontSize=12;align=center;strokeWidth=1;spacing=6;spacingTop=-4;" parent="WIyWlLk6GJQsqaUBKTNV-1" vertex="1">
          <mxGeometry x="429.86" y="630" width="100" height="80" as="geometry" />
        </mxCell>
        <mxCell id="-u-3ihkZp8rK3zhcPllg-32" style="edgeStyle=orthogonalEdgeStyle;rounded=0;orthogonalLoop=1;jettySize=auto;html=1;exitX=0.5;exitY=1;exitDx=0;exitDy=0;entryX=0.5;entryY=0;entryDx=0;entryDy=0;endArrow=classicThin;endFill=1;" parent="WIyWlLk6GJQsqaUBKTNV-1" source="WIyWlLk6GJQsqaUBKTNV-11" target="-u-3ihkZp8rK3zhcPllg-31" edge="1">
          <mxGeometry relative="1" as="geometry" />
        </mxCell>
        <mxCell id="WIyWlLk6GJQsqaUBKTNV-11" value="Get server response" style="rounded=1;whiteSpace=wrap;html=1;fontSize=12;glass=0;strokeWidth=1;shadow=0;" parent="WIyWlLk6GJQsqaUBKTNV-1" vertex="1">
          <mxGeometry x="419.86" y="744" width="120" height="40" as="geometry" />
        </mxCell>
        <mxCell id="-u-3ihkZp8rK3zhcPllg-21" style="edgeStyle=orthogonalEdgeStyle;rounded=0;orthogonalLoop=1;jettySize=auto;html=1;exitX=0.5;exitY=1;exitDx=0;exitDy=0;entryX=0.5;entryY=0;entryDx=0;entryDy=0;endArrow=classicThin;endFill=1;" parent="WIyWlLk6GJQsqaUBKTNV-1" source="WIyWlLk6GJQsqaUBKTNV-12" target="WIyWlLk6GJQsqaUBKTNV-10" edge="1">
          <mxGeometry relative="1" as="geometry" />
        </mxCell>
        <mxCell id="WIyWlLk6GJQsqaUBKTNV-12" value="Send JSON content" style="rounded=1;whiteSpace=wrap;html=1;fontSize=12;glass=0;strokeWidth=1;shadow=0;" parent="WIyWlLk6GJQsqaUBKTNV-1" vertex="1">
          <mxGeometry x="419.86" y="557" width="120" height="40" as="geometry" />
        </mxCell>
        <mxCell id="-u-3ihkZp8rK3zhcPllg-19" style="edgeStyle=orthogonalEdgeStyle;rounded=0;orthogonalLoop=1;jettySize=auto;html=1;exitX=1;exitY=0.5;exitDx=0;exitDy=0;entryX=1;entryY=0.75;entryDx=0;entryDy=0;endArrow=classicThin;endFill=1;" parent="WIyWlLk6GJQsqaUBKTNV-1" source="-u-3ihkZp8rK3zhcPllg-5" target="WIyWlLk6GJQsqaUBKTNV-7" edge="1">
          <mxGeometry relative="1" as="geometry" />
        </mxCell>
        <mxCell id="-u-3ihkZp8rK3zhcPllg-5" value="Wait for 60 sec" style="rounded=1;whiteSpace=wrap;html=1;fontSize=12;glass=0;strokeWidth=1;shadow=0;fillColor=#fff2cc;strokeColor=#d6b656;" parent="WIyWlLk6GJQsqaUBKTNV-1" vertex="1">
          <mxGeometry x="589.86" y="277" width="120" height="40" as="geometry" />
        </mxCell>
        <mxCell id="-u-3ihkZp8rK3zhcPllg-9" style="edgeStyle=orthogonalEdgeStyle;rounded=0;orthogonalLoop=1;jettySize=auto;html=1;exitX=0.5;exitY=1;exitDx=0;exitDy=0;entryX=0.5;entryY=0;entryDx=0;entryDy=0;" parent="WIyWlLk6GJQsqaUBKTNV-1" source="-u-3ihkZp8rK3zhcPllg-6" target="-u-3ihkZp8rK3zhcPllg-8" edge="1">
          <mxGeometry relative="1" as="geometry" />
        </mxCell>
        <mxCell id="-u-3ihkZp8rK3zhcPllg-6" value="Take one file" style="rounded=1;whiteSpace=wrap;html=1;fontSize=12;glass=0;strokeWidth=1;shadow=0;" parent="WIyWlLk6GJQsqaUBKTNV-1" vertex="1">
          <mxGeometry x="419.86" y="371" width="120" height="40" as="geometry" />
        </mxCell>
        <mxCell id="-u-3ihkZp8rK3zhcPllg-8" value="is STOP &lt;br&gt;test log ?" style="rhombus;whiteSpace=wrap;html=1;shadow=0;fontFamily=Helvetica;fontSize=12;align=center;strokeWidth=1;spacing=6;spacingTop=-4;" parent="WIyWlLk6GJQsqaUBKTNV-1" vertex="1">
          <mxGeometry x="429.86" y="441" width="100" height="80" as="geometry" />
        </mxCell>
        <mxCell id="-u-3ihkZp8rK3zhcPllg-10" value="" style="endArrow=classic;html=1;rounded=0;entryX=0.5;entryY=0;entryDx=0;entryDy=0;exitX=0.5;exitY=1;exitDx=0;exitDy=0;" parent="WIyWlLk6GJQsqaUBKTNV-1" source="WIyWlLk6GJQsqaUBKTNV-6" target="-u-3ihkZp8rK3zhcPllg-6" edge="1">
          <mxGeometry relative="1" as="geometry">
            <mxPoint x="289.86" y="371" as="sourcePoint" />
            <mxPoint x="389.86" y="371" as="targetPoint" />
          </mxGeometry>
        </mxCell>
        <mxCell id="-u-3ihkZp8rK3zhcPllg-11" value="Si" style="edgeLabel;resizable=0;html=1;align=center;verticalAlign=middle;" parent="-u-3ihkZp8rK3zhcPllg-10" connectable="0" vertex="1">
          <mxGeometry relative="1" as="geometry">
            <mxPoint x="9" y="-3" as="offset" />
          </mxGeometry>
        </mxCell>
        <mxCell id="-u-3ihkZp8rK3zhcPllg-12" value="" style="endArrow=classic;html=1;rounded=0;entryX=0;entryY=0.5;entryDx=0;entryDy=0;exitX=1;exitY=0.5;exitDx=0;exitDy=0;" parent="WIyWlLk6GJQsqaUBKTNV-1" source="-u-3ihkZp8rK3zhcPllg-8" target="-u-3ihkZp8rK3zhcPllg-15" edge="1">
          <mxGeometry relative="1" as="geometry">
            <mxPoint x="429.17000000000013" y="501" as="sourcePoint" />
            <mxPoint x="429.17000000000013" y="541" as="targetPoint" />
            <Array as="points" />
          </mxGeometry>
        </mxCell>
        <mxCell id="-u-3ihkZp8rK3zhcPllg-13" value="Si" style="edgeLabel;resizable=0;html=1;align=center;verticalAlign=middle;" parent="-u-3ihkZp8rK3zhcPllg-12" connectable="0" vertex="1">
          <mxGeometry relative="1" as="geometry">
            <mxPoint y="-10" as="offset" />
          </mxGeometry>
        </mxCell>
        <mxCell id="-u-3ihkZp8rK3zhcPllg-14" value="No" style="edgeStyle=orthogonalEdgeStyle;rounded=0;html=1;jettySize=auto;orthogonalLoop=1;fontSize=11;endArrow=classicThin;endFill=1;endSize=8;strokeWidth=1;shadow=0;labelBackgroundColor=none;exitX=0.5;exitY=1;exitDx=0;exitDy=0;entryX=0.5;entryY=0;entryDx=0;entryDy=0;" parent="WIyWlLk6GJQsqaUBKTNV-1" source="-u-3ihkZp8rK3zhcPllg-8" target="WIyWlLk6GJQsqaUBKTNV-12" edge="1">
          <mxGeometry x="-0.3333" y="10" relative="1" as="geometry">
            <mxPoint as="offset" />
            <mxPoint x="439.86" y="531" as="sourcePoint" />
            <mxPoint x="430" y="533" as="targetPoint" />
          </mxGeometry>
        </mxCell>
        <mxCell id="-u-3ihkZp8rK3zhcPllg-20" style="edgeStyle=orthogonalEdgeStyle;rounded=0;orthogonalLoop=1;jettySize=auto;html=1;exitX=1;exitY=0.5;exitDx=0;exitDy=0;endArrow=classicThin;endFill=1;entryX=1;entryY=0.5;entryDx=0;entryDy=0;" parent="WIyWlLk6GJQsqaUBKTNV-1" source="-u-3ihkZp8rK3zhcPllg-15" target="WIyWlLk6GJQsqaUBKTNV-7" edge="1">
          <mxGeometry relative="1" as="geometry">
            <mxPoint x="729.86" y="301" as="targetPoint" />
            <Array as="points">
              <mxPoint x="739.86" y="481" />
              <mxPoint x="739.86" y="128" />
            </Array>
          </mxGeometry>
        </mxCell>
        <mxCell id="-u-3ihkZp8rK3zhcPllg-15" value="Move file to rejected&lt;br&gt;folder" style="rounded=1;whiteSpace=wrap;html=1;fontSize=12;glass=0;strokeWidth=1;shadow=0;fillColor=#e1d5e7;strokeColor=#9673a6;" parent="WIyWlLk6GJQsqaUBKTNV-1" vertex="1">
          <mxGeometry x="589.86" y="461" width="120" height="40" as="geometry" />
        </mxCell>
        <mxCell id="-u-3ihkZp8rK3zhcPllg-18" style="edgeStyle=orthogonalEdgeStyle;rounded=0;orthogonalLoop=1;jettySize=auto;html=1;exitX=0.5;exitY=1;exitDx=0;exitDy=0;entryX=0.5;entryY=0;entryDx=0;entryDy=0;endArrow=classicThin;endFill=1;" parent="WIyWlLk6GJQsqaUBKTNV-1" source="-u-3ihkZp8rK3zhcPllg-16" target="WIyWlLk6GJQsqaUBKTNV-6" edge="1">
          <mxGeometry relative="1" as="geometry" />
        </mxCell>
        <mxCell id="-u-3ihkZp8rK3zhcPllg-16" value="Mostrar test logs" style="rounded=1;whiteSpace=wrap;html=1;fontSize=12;glass=0;strokeWidth=1;shadow=0;fillColor=#dae8fc;strokeColor=#6c8ebf;" parent="WIyWlLk6GJQsqaUBKTNV-1" vertex="1">
          <mxGeometry x="419.86" y="186" width="120" height="40" as="geometry" />
        </mxCell>
        <mxCell id="-u-3ihkZp8rK3zhcPllg-24" value="" style="endArrow=classic;html=1;rounded=0;entryX=0;entryY=0.5;entryDx=0;entryDy=0;exitX=1;exitY=0.5;exitDx=0;exitDy=0;" parent="WIyWlLk6GJQsqaUBKTNV-1" edge="1">
          <mxGeometry relative="1" as="geometry">
            <mxPoint x="529.86" y="669.76" as="sourcePoint" />
            <mxPoint x="589.86" y="669.76" as="targetPoint" />
            <Array as="points" />
          </mxGeometry>
        </mxCell>
        <mxCell id="-u-3ihkZp8rK3zhcPllg-25" value="Si" style="edgeLabel;resizable=0;html=1;align=center;verticalAlign=middle;" parent="-u-3ihkZp8rK3zhcPllg-24" connectable="0" vertex="1">
          <mxGeometry relative="1" as="geometry">
            <mxPoint y="-10" as="offset" />
          </mxGeometry>
        </mxCell>
        <mxCell id="-u-3ihkZp8rK3zhcPllg-27" style="edgeStyle=orthogonalEdgeStyle;rounded=0;orthogonalLoop=1;jettySize=auto;html=1;exitX=1;exitY=0.5;exitDx=0;exitDy=0;endArrow=classicThin;endFill=1;entryX=1;entryY=0.25;entryDx=0;entryDy=0;" parent="WIyWlLk6GJQsqaUBKTNV-1" source="-u-3ihkZp8rK3zhcPllg-26" target="WIyWlLk6GJQsqaUBKTNV-7" edge="1">
          <mxGeometry relative="1" as="geometry">
            <mxPoint x="759.86" y="111" as="targetPoint" />
            <Array as="points">
              <mxPoint x="749.86" y="681" />
              <mxPoint x="749.86" y="116" />
            </Array>
          </mxGeometry>
        </mxCell>
        <mxCell id="-u-3ihkZp8rK3zhcPllg-26" value="Wait for 60 sec" style="rounded=1;whiteSpace=wrap;html=1;fontSize=12;glass=0;strokeWidth=1;shadow=0;fillColor=#fff2cc;strokeColor=#d6b656;" parent="WIyWlLk6GJQsqaUBKTNV-1" vertex="1">
          <mxGeometry x="589.86" y="650" width="120" height="40" as="geometry" />
        </mxCell>
        <mxCell id="-u-3ihkZp8rK3zhcPllg-29" value="" style="endArrow=classic;html=1;rounded=0;entryX=0.5;entryY=0;entryDx=0;entryDy=0;exitX=0.5;exitY=1;exitDx=0;exitDy=0;fontStyle=1" parent="WIyWlLk6GJQsqaUBKTNV-1" source="WIyWlLk6GJQsqaUBKTNV-10" target="WIyWlLk6GJQsqaUBKTNV-11" edge="1">
          <mxGeometry relative="1" as="geometry">
            <mxPoint x="509.86" y="720" as="sourcePoint" />
            <mxPoint x="569.86" y="720" as="targetPoint" />
            <Array as="points" />
          </mxGeometry>
        </mxCell>
        <mxCell id="-u-3ihkZp8rK3zhcPllg-30" value="No" style="edgeLabel;resizable=0;html=1;align=center;verticalAlign=middle;" parent="-u-3ihkZp8rK3zhcPllg-29" connectable="0" vertex="1">
          <mxGeometry relative="1" as="geometry">
            <mxPoint x="10" y="-10" as="offset" />
          </mxGeometry>
        </mxCell>
        <mxCell id="-u-3ihkZp8rK3zhcPllg-31" value="error= false?" style="rhombus;whiteSpace=wrap;html=1;shadow=0;fontFamily=Helvetica;fontSize=12;align=center;strokeWidth=1;spacing=6;spacingTop=-4;" parent="WIyWlLk6GJQsqaUBKTNV-1" vertex="1">
          <mxGeometry x="429.86" y="818" width="100" height="80" as="geometry" />
        </mxCell>
        <mxCell id="-u-3ihkZp8rK3zhcPllg-33" value="" style="endArrow=classic;html=1;rounded=0;exitX=0;exitY=0.5;exitDx=0;exitDy=0;" parent="WIyWlLk6GJQsqaUBKTNV-1" source="-u-3ihkZp8rK3zhcPllg-37" edge="1">
          <mxGeometry relative="1" as="geometry">
            <mxPoint x="229.86" y="848" as="sourcePoint" />
            <mxPoint x="239.86" y="928" as="targetPoint" />
            <Array as="points" />
          </mxGeometry>
        </mxCell>
        <mxCell id="-u-3ihkZp8rK3zhcPllg-34" value="No" style="edgeLabel;resizable=0;html=1;align=center;verticalAlign=middle;" parent="-u-3ihkZp8rK3zhcPllg-33" connectable="0" vertex="1">
          <mxGeometry relative="1" as="geometry">
            <mxPoint x="10" y="-10" as="offset" />
          </mxGeometry>
        </mxCell>
        <mxCell id="-u-3ihkZp8rK3zhcPllg-35" value="" style="endArrow=classic;html=1;rounded=0;exitX=0;exitY=0.5;exitDx=0;exitDy=0;entryX=0.5;entryY=0;entryDx=0;entryDy=0;" parent="WIyWlLk6GJQsqaUBKTNV-1" source="-u-3ihkZp8rK3zhcPllg-31" target="-u-3ihkZp8rK3zhcPllg-37" edge="1">
          <mxGeometry relative="1" as="geometry">
            <mxPoint x="389.86" y="848" as="sourcePoint" />
            <mxPoint x="379.86" y="858" as="targetPoint" />
            <Array as="points">
              <mxPoint x="339.86" y="858" />
            </Array>
          </mxGeometry>
        </mxCell>
        <mxCell id="-u-3ihkZp8rK3zhcPllg-36" value="No" style="edgeLabel;resizable=0;html=1;align=center;verticalAlign=middle;" parent="-u-3ihkZp8rK3zhcPllg-35" connectable="0" vertex="1">
          <mxGeometry relative="1" as="geometry">
            <mxPoint x="10" y="-10" as="offset" />
          </mxGeometry>
        </mxCell>
        <mxCell id="-u-3ihkZp8rK3zhcPllg-37" value="JSON OK?" style="rhombus;whiteSpace=wrap;html=1;shadow=0;fontFamily=Helvetica;fontSize=12;align=center;strokeWidth=1;spacing=6;spacingTop=-4;" parent="WIyWlLk6GJQsqaUBKTNV-1" vertex="1">
          <mxGeometry x="289.86" y="888" width="100" height="80" as="geometry" />
        </mxCell>
        <mxCell id="-u-3ihkZp8rK3zhcPllg-39" style="edgeStyle=orthogonalEdgeStyle;rounded=0;orthogonalLoop=1;jettySize=auto;html=1;entryX=0;entryY=0.75;entryDx=0;entryDy=0;endArrow=classicThin;endFill=1;" parent="WIyWlLk6GJQsqaUBKTNV-1" source="-u-3ihkZp8rK3zhcPllg-38" target="WIyWlLk6GJQsqaUBKTNV-7" edge="1">
          <mxGeometry relative="1" as="geometry">
            <Array as="points">
              <mxPoint x="100" y="928" />
              <mxPoint x="100" y="140" />
            </Array>
          </mxGeometry>
        </mxCell>
        <mxCell id="-u-3ihkZp8rK3zhcPllg-38" value="Wait for 60 sec" style="rounded=1;whiteSpace=wrap;html=1;fontSize=12;glass=0;strokeWidth=1;shadow=0;fillColor=#fff2cc;strokeColor=#d6b656;" parent="WIyWlLk6GJQsqaUBKTNV-1" vertex="1">
          <mxGeometry x="119.86" y="908" width="120" height="40" as="geometry" />
        </mxCell>
        <mxCell id="-u-3ihkZp8rK3zhcPllg-40" value="" style="endArrow=classic;html=1;rounded=0;exitX=0.5;exitY=1;exitDx=0;exitDy=0;entryX=0.5;entryY=0;entryDx=0;entryDy=0;" parent="WIyWlLk6GJQsqaUBKTNV-1" source="-u-3ihkZp8rK3zhcPllg-37" target="-u-3ihkZp8rK3zhcPllg-42" edge="1">
          <mxGeometry relative="1" as="geometry">
            <mxPoint x="338.86" y="968" as="sourcePoint" />
            <mxPoint x="341.40545454545463" y="1003" as="targetPoint" />
            <Array as="points" />
          </mxGeometry>
        </mxCell>
        <mxCell id="-u-3ihkZp8rK3zhcPllg-41" value="Si" style="edgeLabel;resizable=0;html=1;align=center;verticalAlign=middle;" parent="-u-3ihkZp8rK3zhcPllg-40" connectable="0" vertex="1">
          <mxGeometry relative="1" as="geometry">
            <mxPoint x="10" y="-10" as="offset" />
          </mxGeometry>
        </mxCell>
        <mxCell id="-u-3ihkZp8rK3zhcPllg-44" style="edgeStyle=orthogonalEdgeStyle;rounded=0;orthogonalLoop=1;jettySize=auto;html=1;exitX=0.5;exitY=1;exitDx=0;exitDy=0;entryX=0.5;entryY=0;entryDx=0;entryDy=0;endArrow=classicThin;endFill=1;" parent="WIyWlLk6GJQsqaUBKTNV-1" source="-u-3ihkZp8rK3zhcPllg-42" target="-u-3ihkZp8rK3zhcPllg-43" edge="1">
          <mxGeometry relative="1" as="geometry" />
        </mxCell>
        <mxCell id="-u-3ihkZp8rK3zhcPllg-42" value="Move file to accepted folder" style="rounded=1;whiteSpace=wrap;html=1;fontSize=12;glass=0;strokeWidth=1;shadow=0;fillColor=#ffff88;strokeColor=#36393d;" parent="WIyWlLk6GJQsqaUBKTNV-1" vertex="1">
          <mxGeometry x="279.86" y="1001" width="120" height="40" as="geometry" />
        </mxCell>
        <mxCell id="-u-3ihkZp8rK3zhcPllg-50" style="edgeStyle=orthogonalEdgeStyle;rounded=0;orthogonalLoop=1;jettySize=auto;html=1;exitX=0.5;exitY=1;exitDx=0;exitDy=0;entryX=0;entryY=0.5;entryDx=0;entryDy=0;endArrow=classicThin;endFill=1;" parent="WIyWlLk6GJQsqaUBKTNV-1" source="-u-3ihkZp8rK3zhcPllg-43" target="WIyWlLk6GJQsqaUBKTNV-7" edge="1">
          <mxGeometry relative="1" as="geometry">
            <Array as="points">
              <mxPoint x="344" y="1113" />
              <mxPoint x="344" y="1123" />
              <mxPoint x="90" y="1123" />
              <mxPoint x="90" y="128" />
            </Array>
          </mxGeometry>
        </mxCell>
        <mxCell id="-u-3ihkZp8rK3zhcPllg-43" value="Mostrar test logs" style="rounded=1;whiteSpace=wrap;html=1;fontSize=12;glass=0;strokeWidth=1;shadow=0;fillColor=#dae8fc;strokeColor=#6c8ebf;" parent="WIyWlLk6GJQsqaUBKTNV-1" vertex="1">
          <mxGeometry x="279.86" y="1073" width="120" height="40" as="geometry" />
        </mxCell>
        <mxCell id="-u-3ihkZp8rK3zhcPllg-49" style="edgeStyle=orthogonalEdgeStyle;rounded=0;orthogonalLoop=1;jettySize=auto;html=1;exitX=0.5;exitY=1;exitDx=0;exitDy=0;entryX=0.5;entryY=0;entryDx=0;entryDy=0;endArrow=classicThin;endFill=1;" parent="WIyWlLk6GJQsqaUBKTNV-1" source="-u-3ihkZp8rK3zhcPllg-45" target="-u-3ihkZp8rK3zhcPllg-48" edge="1">
          <mxGeometry relative="1" as="geometry" />
        </mxCell>
        <mxCell id="-u-3ihkZp8rK3zhcPllg-45" value="Move file to rejected folder" style="rounded=1;whiteSpace=wrap;html=1;fontSize=12;glass=0;strokeWidth=1;shadow=0;fillColor=#e1d5e7;strokeColor=#9673a6;" parent="WIyWlLk6GJQsqaUBKTNV-1" vertex="1">
          <mxGeometry x="539.86" y="889" width="120" height="40" as="geometry" />
        </mxCell>
        <mxCell id="-u-3ihkZp8rK3zhcPllg-46" value="" style="endArrow=classic;html=1;rounded=0;exitX=1;exitY=0.5;exitDx=0;exitDy=0;entryX=0.5;entryY=0;entryDx=0;entryDy=0;" parent="WIyWlLk6GJQsqaUBKTNV-1" source="-u-3ihkZp8rK3zhcPllg-31" target="-u-3ihkZp8rK3zhcPllg-45" edge="1">
          <mxGeometry relative="1" as="geometry">
            <mxPoint x="719.86" y="818" as="sourcePoint" />
            <mxPoint x="629.86" y="848" as="targetPoint" />
            <Array as="points">
              <mxPoint x="599.86" y="858" />
            </Array>
          </mxGeometry>
        </mxCell>
        <mxCell id="-u-3ihkZp8rK3zhcPllg-47" value="Si" style="edgeLabel;resizable=0;html=1;align=center;verticalAlign=middle;" parent="-u-3ihkZp8rK3zhcPllg-46" connectable="0" vertex="1">
          <mxGeometry relative="1" as="geometry">
            <mxPoint x="10" y="-10" as="offset" />
          </mxGeometry>
        </mxCell>
        <mxCell id="-u-3ihkZp8rK3zhcPllg-51" style="edgeStyle=orthogonalEdgeStyle;rounded=0;orthogonalLoop=1;jettySize=auto;html=1;exitX=0.5;exitY=1;exitDx=0;exitDy=0;endArrow=classicThin;endFill=1;entryX=0;entryY=0.25;entryDx=0;entryDy=0;" parent="WIyWlLk6GJQsqaUBKTNV-1" source="-u-3ihkZp8rK3zhcPllg-48" target="WIyWlLk6GJQsqaUBKTNV-7" edge="1">
          <mxGeometry relative="1" as="geometry">
            <mxPoint x="109.86" y="111" as="targetPoint" />
            <Array as="points">
              <mxPoint x="600" y="1133" />
              <mxPoint x="80" y="1133" />
              <mxPoint x="80" y="116" />
            </Array>
          </mxGeometry>
        </mxCell>
        <mxCell id="-u-3ihkZp8rK3zhcPllg-48" value="Mostrar test logs" style="rounded=1;whiteSpace=wrap;html=1;fontSize=12;glass=0;strokeWidth=1;shadow=0;fillColor=#dae8fc;strokeColor=#6c8ebf;" parent="WIyWlLk6GJQsqaUBKTNV-1" vertex="1">
          <mxGeometry x="539.86" y="963" width="120" height="40" as="geometry" />
        </mxCell>
        <mxCell id="ebw3Io6tW6_mU000Hd5M-1" style="edgeStyle=orthogonalEdgeStyle;rounded=0;orthogonalLoop=1;jettySize=auto;html=1;entryX=0.5;entryY=0;entryDx=0;entryDy=0;" edge="1" parent="WIyWlLk6GJQsqaUBKTNV-1" source="ebw3Io6tW6_mU000Hd5M-0" target="WIyWlLk6GJQsqaUBKTNV-3">
          <mxGeometry relative="1" as="geometry" />
        </mxCell>
        <mxCell id="ebw3Io6tW6_mU000Hd5M-0" value="Initilize" style="rounded=1;whiteSpace=wrap;html=1;fontSize=12;glass=0;strokeWidth=1;shadow=0;" vertex="1" parent="WIyWlLk6GJQsqaUBKTNV-1">
          <mxGeometry x="419" y="-271" width="120" height="40" as="geometry" />
        </mxCell>
        <mxCell id="ebw3Io6tW6_mU000Hd5M-4" value="get timeout for http get&lt;br style=&quot;font-size: 10px;&quot;&gt;get timeout for http post&lt;br style=&quot;font-size: 10px;&quot;&gt;get end point&lt;br style=&quot;font-size: 10px;&quot;&gt;get file extension to search (*json)&lt;br style=&quot;font-size: 10px;&quot;&gt;get holding time (timer)&lt;br style=&quot;font-size: 10px;&quot;&gt;create test log folder path&lt;br style=&quot;font-size: 10px;&quot;&gt;create accepted folder path&lt;br style=&quot;font-size: 10px;&quot;&gt;create rejected folder path" style="text;html=1;strokeColor=none;fillColor=none;align=left;verticalAlign=middle;whiteSpace=wrap;rounded=0;fontFamily=Times New Roman;fontSize=10;" vertex="1" parent="WIyWlLk6GJQsqaUBKTNV-1">
          <mxGeometry x="600" y="-240" width="145" height="100" as="geometry" />
        </mxCell>
        <mxCell id="ebw3Io6tW6_mU000Hd5M-5" value="" style="endArrow=openThin;html=1;rounded=0;exitX=1;exitY=0.5;exitDx=0;exitDy=0;entryX=0;entryY=0.5;entryDx=0;entryDy=0;dashed=1;dashPattern=8 8;endFill=0;" edge="1" parent="WIyWlLk6GJQsqaUBKTNV-1" source="WIyWlLk6GJQsqaUBKTNV-3" target="ebw3Io6tW6_mU000Hd5M-4">
          <mxGeometry width="50" height="50" relative="1" as="geometry">
            <mxPoint x="589.14" y="-171" as="sourcePoint" />
            <mxPoint x="609.14" y="-201" as="targetPoint" />
          </mxGeometry>
        </mxCell>
        <mxCell id="ebw3Io6tW6_mU000Hd5M-16" style="edgeStyle=orthogonalEdgeStyle;rounded=0;orthogonalLoop=1;jettySize=auto;html=1;exitX=0.5;exitY=1;exitDx=0;exitDy=0;entryX=0.5;entryY=0;entryDx=0;entryDy=0;" edge="1" parent="WIyWlLk6GJQsqaUBKTNV-1" source="ebw3Io6tW6_mU000Hd5M-11" target="ebw3Io6tW6_mU000Hd5M-15">
          <mxGeometry relative="1" as="geometry" />
        </mxCell>
        <mxCell id="ebw3Io6tW6_mU000Hd5M-11" value="Get All Log&lt;br&gt;Files" style="rounded=1;whiteSpace=wrap;html=1;fontSize=12;glass=0;strokeWidth=1;shadow=1;" vertex="1" parent="WIyWlLk6GJQsqaUBKTNV-1">
          <mxGeometry x="419" y="-131" width="120" height="40" as="geometry" />
        </mxCell>
        <mxCell id="ebw3Io6tW6_mU000Hd5M-18" style="edgeStyle=orthogonalEdgeStyle;rounded=0;orthogonalLoop=1;jettySize=auto;html=1;exitX=0.5;exitY=1;exitDx=0;exitDy=0;entryX=0.5;entryY=0;entryDx=0;entryDy=0;" edge="1" parent="WIyWlLk6GJQsqaUBKTNV-1" source="ebw3Io6tW6_mU000Hd5M-15" target="ebw3Io6tW6_mU000Hd5M-17">
          <mxGeometry relative="1" as="geometry" />
        </mxCell>
        <mxCell id="ebw3Io6tW6_mU000Hd5M-15" value="" style="rounded=1;whiteSpace=wrap;html=1;fontSize=12;glass=0;strokeWidth=1;shadow=0;" vertex="1" parent="WIyWlLk6GJQsqaUBKTNV-1">
          <mxGeometry x="419" y="-61" width="120" height="40" as="geometry" />
        </mxCell>
        <mxCell id="ebw3Io6tW6_mU000Hd5M-17" value="" style="rounded=1;whiteSpace=wrap;html=1;fontSize=12;glass=0;strokeWidth=1;shadow=0;" vertex="1" parent="WIyWlLk6GJQsqaUBKTNV-1">
          <mxGeometry x="419" y="9" width="120" height="40" as="geometry" />
        </mxCell>
        <mxCell id="ebw3Io6tW6_mU000Hd5M-20" value="get all test log files path &amp;amp; the number of test log files&lt;br&gt;get the number of rejected test log files&lt;br&gt;get the number of accepted test log files" style="text;html=1;strokeColor=none;fillColor=none;align=left;verticalAlign=middle;whiteSpace=wrap;rounded=0;fontFamily=Times New Roman;fontSize=10;" vertex="1" parent="WIyWlLk6GJQsqaUBKTNV-1">
          <mxGeometry x="600" y="-131" width="165" height="59" as="geometry" />
        </mxCell>
        <mxCell id="ebw3Io6tW6_mU000Hd5M-25" value="" style="endArrow=openThin;html=1;rounded=0;entryX=0;entryY=0.5;entryDx=0;entryDy=0;dashed=1;dashPattern=8 8;endFill=0;exitX=1;exitY=0.5;exitDx=0;exitDy=0;" edge="1" parent="WIyWlLk6GJQsqaUBKTNV-1" source="ebw3Io6tW6_mU000Hd5M-11" target="ebw3Io6tW6_mU000Hd5M-20">
          <mxGeometry width="50" height="50" relative="1" as="geometry">
            <mxPoint x="550" y="-100" as="sourcePoint" />
            <mxPoint x="626" y="-100" as="targetPoint" />
          </mxGeometry>
        </mxCell>
      </root>
    </mxGraphModel>
  </diagram>
</mxfile>
